<svg width="18" height="19" viewBox="0 0 18 19" fill="none" xmlns="http://www.w3.org/2000/svg">
<path d="M16.7005 6.92918C17.226 7.42551 17.226 8.22429 16.7005 8.72061C16.4378 8.96877 16.097 9.09286 15.7521 9.09286C15.4072 9.09286 15.0665 8.96877 14.8037 8.72061L10.1479 4.32347L10.1479 17.732C10.1479 18.43 9.54849 19 8.80537 19C8.06635 19 7.46282 18.4339 7.46282 17.732L7.46282 4.32347L2.81523 8.72061C2.28971 9.21694 1.44394 9.21694 0.918419 8.72061C0.392897 8.22429 0.392897 7.42551 0.918419 6.92918L7.86107 0.372244C8.11151 0.135714 8.45228 0 8.80947 0C9.16666 0 9.50743 0.131836 9.75788 0.372244L16.7005 6.92918Z" fill="black"/>
</svg>
